<?xml version="1.0" encoding="UTF-8"?>
<svg width="500" height="142" viewBox="0 0 500 142" fill="none" xmlns="http://www.w3.org/2000/svg">
  <path d="M120.321 31.259C120.321 31.259 119.082 31.259 117.843 31.259C116.604 31.259 115.365 31.259 114.126 31.259C112.887 31.259 111.648 31.259 110.409 31.259C109.17 31.259 107.931 31.259 106.692 31.259C105.453 31.259 104.214 31.259 102.975 31.259C101.736 31.259 100.497 31.259 99.258 31.259C98.019 31.259 96.78 31.259 95.541 31.259C94.302 31.259 93.063 31.259 91.824 31.259C90.585 31.259 89.346 31.259 88.107 31.259C86.868 31.259 85.629 31.259 84.39 31.259C83.151 31.259 81.912 31.259 80.673 31.259C79.434 31.259 78.195 31.259 76.956 31.259C75.717 31.259 74.478 31.259 73.239 31.259C72 31.259 70.761 31.259 69.522 31.259C68.283 31.259 67.044 31.259 65.805 31.259C64.566 31.259 63.327 31.259 62.088 31.259C60.849 31.259 59.61 31.259 58.371 31.259C57.132 31.259 55.893 31.259 54.654 31.259C53.415 31.259 52.176 31.259 50.937 31.259C49.698 31.259 48.459 31.259 47.22 31.259C45.981 31.259 44.742 31.259 43.503 31.259C42.264 31.259 41.025 31.259 39.786 31.259C38.547 31.259 37.308 31.259 36.069 31.259C34.83 31.259 33.591 31.259 32.352 31.259C31.113 31.259 29.874 31.259 28.635 31.259C27.396 31.259 26.157 31.259 24.918 31.259C23.679 31.259 22.44 31.259 21.201 31.259C19.962 31.259 18.723 31.259 17.484 31.259C16.245 31.259 15.006 31.259 13.767 31.259C12.528 31.259 11.289 31.259 10.05 31.259C8.811 31.259 7.572 31.259 6.333 31.259C5.094 31.259 3.855 31.259 2.616 31.259C1.377 31.259 0.138 31.259 -1.101 31.259" stroke="#95BF47" stroke-width="2"/>
  <path d="M31.6946 20.8789C31.6946 20.8789 31.6946 22.1179 31.6946 23.3569C31.6946 24.5959 31.6946 25.8349 31.6946 27.0739C31.6946 28.3129 31.6946 29.5519 31.6946 30.7909C31.6946 32.0299 31.6946 33.2689 31.6946 34.5079C31.6946 35.7469 31.6946 36.9859 31.6946 38.2249C31.6946 39.4639 31.6946 40.7029 31.6946 41.9419C31.6946 43.1809 31.6946 44.4199 31.6946 45.6589C31.6946 46.8979 31.6946 48.1369 31.6946 49.3759C31.6946 50.6149 31.6946 51.8539 31.6946 53.0929C31.6946 54.3319 31.6946 55.5709 31.6946 56.8099C31.6946 58.0489 31.6946 59.2879 31.6946 60.5269C31.6946 61.7659 31.6946 63.0049 31.6946 64.2439C31.6946 65.4829 31.6946 66.7219 31.6946 67.9609C31.6946 69.1999 31.6946 70.4389 31.6946 71.6779C31.6946 72.9169 31.6946 74.1559 31.6946 75.3949C31.6946 76.6339 31.6946 77.8729 31.6946 79.1119C31.6946 80.3509 31.6946 81.5899 31.6946 82.8289C31.6946 84.0679 31.6946 85.3069 31.6946 86.5459C31.6946 87.7849 31.6946 89.0239 31.6946 90.2629C31.6946 91.5019 31.6946 92.7409 31.6946 93.9799C31.6946 95.2189 31.6946 96.4579 31.6946 97.6969C31.6946 98.9359 31.6946 100.175 31.6946 101.414C31.6946 102.653 31.6946 103.892 31.6946 105.131C31.6946 106.37 31.6946 107.609 31.6946 108.848C31.6946 110.087 31.6946 111.326 31.6946 112.565C31.6946 113.804 31.6946 115.043 31.6946 116.282C31.6946 117.521 31.6946 118.76 31.6946 119.999" stroke="#5E8E3E" stroke-width="2"/>
  <text x="250" y="80" text-anchor="middle" font-family="Arial" font-size="48" font-weight="bold" fill="#5E8E3E">PLUS</text>
</svg> 