<?xml version="1.0" encoding="UTF-8"?>
<svg width="500" height="142" viewBox="0 0 500 142" fill="none" xmlns="http://www.w3.org/2000/svg">
  <path d="M120.321 31.259C120.321 31.259 119.082 31.259 117.843 31.259C116.604 31.259 115.365 31.259 114.126 31.259C112.887 31.259 111.648 31.259 110.409 31.259C109.17 31.259 107.931 31.259 106.692 31.259C105.453 31.259 104.214 31.259 102.975 31.259C101.736 31.259 100.497 31.259 99.258 31.259C98.019 31.259 96.78 31.259 95.541 31.259C94.302 31.259 93.063 31.259 91.824 31.259C90.585 31.259 89.346 31.259 88.107 31.259C86.868 31.259 85.629 31.259 84.39 31.259C83.151 31.259 81.912 31.259 80.673 31.259C79.434 31.259 78.195 31.259 76.956 31.259C75.717 31.259 74.478 31.259 73.239 31.259C72 31.259 70.761 31.259 69.522 31.259C68.283 31.259 67.044 31.259 65.805 31.259C64.566 31.259 63.327 31.259 62.088 31.259C60.849 31.259 59.61 31.259 58.371 31.259C57.132 31.259 55.893 31.259 54.654 31.259C53.415 31.259 52.176 31.259 50.937 31.259C49.698 31.259 48.459 31.259 47.22 31.259C45.981 31.259 44.742 31.259 43.503 31.259C42.264 31.259 41.025 31.259 39.786 31.259C38.547 31.259 37.308 31.259 36.069 31.259C34.83 31.259 33.591 31.259 32.352 31.259C31.113 31.259 29.874 31.259 28.635 31.259C27.396 31.259 26.157 31.259 24.918 31.259C23.679 31.259 22.44 31.259 21.201 31.259C19.962 31.259 18.723 31.259 17.484 31.259C16.245 31.259 15.006 31.259 13.767 31.259C12.528 31.259 11.289 31.259 10.05 31.259C8.811 31.259 7.572 31.259 6.333 31.259C5.094 31.259 3.855 31.259 2.616 31.259C1.377 31.259 0.138 31.259 -1.101 31.259" stroke="#95BF47" stroke-width="2"/>
  <path d="M31.6946 20.8789C31.6946 20.8789 31.6946 22.1179 31.6946 23.3569C31.6946 24.5959 31.6946 25.8349 31.6946 27.0739C31.6946 28.3129 31.6946 29.5519 31.6946 30.7909C31.6946 32.0299 31.6946 33.2689 31.6946 34.5079C31.6946 35.7469 31.6946 36.9859 31.6946 38.2249C31.6946 39.4639 31.6946 40.7029 31.6946 41.9419C31.6946 43.1809 31.6946 44.4199 31.6946 45.6589C31.6946 46.8979 31.6946 48.1369 31.6946 49.3759C31.6946 50.6149 31.6946 51.8539 31.6946 53.0929C31.6946 54.3319 31.6946 55.5709 31.6946 56.8099C31.6946 58.0489 31.6946 59.2879 31.6946 60.5269C31.6946 61.7659 31.6946 63.0049 31.6946 64.2439C31.6946 65.4829 31.6946 66.7219 31.6946 67.9609C31.6946 69.1999 31.6946 70.4389 31.6946 71.6779C31.6946 72.9169 31.6946 74.1559 31.6946 75.3949C31.6946 76.6339 31.6946 77.8729 31.6946 79.1119C31.6946 80.3509 31.6946 81.5899 31.6946 82.8289C31.6946 84.0679 31.6946 85.3069 31.6946 86.5459C31.6946 87.7849 31.6946 89.0239 31.6946 90.2629C31.6946 91.5019 31.6946 92.7409 31.6946 93.9799C31.6946 95.2189 31.6946 96.4579 31.6946 97.6969C31.6946 98.9359 31.6946 100.175 31.6946 101.414C31.6946 102.653 31.6946 103.892 31.6946 105.131C31.6946 106.37 31.6946 107.609 31.6946 108.848C31.6946 110.087 31.6946 111.326 31.6946 112.565C31.6946 113.804 31.6946 115.043 31.6946 116.282C31.6946 117.521 31.6946 118.76 31.6946 119.999" stroke="#5E8E3E" stroke-width="2"/>
  <path d="M31.6946 20.8789C31.6946 20.8789 32.9336 20.8789 34.1726 20.8789C35.4116 20.8789 36.6506 20.8789 37.8896 20.8789C39.1286 20.8789 40.3676 20.8789 41.6066 20.8789C42.8456 20.8789 44.0846 20.8789 45.3236 20.8789C46.5626 20.8789 47.8016 20.8789 49.0406 20.8789C50.2796 20.8789 51.5186 20.8789 52.7576 20.8789C53.9966 20.8789 55.2356 20.8789 56.4746 20.8789C57.7136 20.8789 58.9526 20.8789 60.1916 20.8789C61.4306 20.8789 62.6696 20.8789 63.9086 20.8789C65.1476 20.8789 66.3866 20.8789 67.6256 20.8789C68.8646 20.8789 70.1036 20.8789 71.3426 20.8789C72.5816 20.8789 73.8206 20.8789 75.0596 20.8789C76.2986 20.8789 77.5376 20.8789 78.7766 20.8789C80.0156 20.8789 81.2546 20.8789 82.4936 20.8789C83.7326 20.8789 84.9716 20.8789 86.2106 20.8789C87.4496 20.8789 88.6886 20.8789 89.9276 20.8789C91.1666 20.8789 92.4056 20.8789 93.6446 20.8789C94.8836 20.8789 96.1226 20.8789 97.3616 20.8789C98.6006 20.8789 99.8396 20.8789 101.079 20.8789C102.318 20.8789 103.557 20.8789 104.796 20.8789C106.035 20.8789 107.274 20.8789 108.513 20.8789C109.752 20.8789 110.991 20.8789 112.23 20.8789C113.469 20.8789 114.708 20.8789 115.947 20.8789C117.186 20.8789 118.425 20.8789 119.664 20.8789C120.903 20.8789 122.142 20.8789 123.381 20.8789C124.62 20.8789 125.859 20.8789 127.098 20.8789C128.337 20.8789 129.576 20.8789 130.815 20.8789C132.054 20.8789 133.293 20.8789 134.532 20.8789C135.771 20.8789 137.01 20.8789 138.249 20.8789C139.488 20.8789 140.727 20.8789 141.966 20.8789C143.205 20.8789 144.444 20.8789 145.683 20.8789C146.922 20.8789 148.161 20.8789 149.4 20.8789C150.639 20.8789 151.878 20.8789 153.117 20.8789" stroke="#5E8E3E" stroke-width="2"/>
  <path d="M31.6946 119.999C31.6946 119.999 32.9336 119.999 34.1726 119.999C35.4116 119.999 36.6506 119.999 37.8896 119.999C39.1286 119.999 40.3676 119.999 41.6066 119.999C42.8456 119.999 44.0846 119.999 45.3236 119.999C46.5626 119.999 47.8016 119.999 49.0406 119.999C50.2796 119.999 51.5186 119.999 52.7576 119.999C53.9966 119.999 55.2356 119.999 56.4746 119.999C57.7136 119.999 58.9526 119.999 60.1916 119.999C61.4306 119.999 62.6696 119.999 63.9086 119.999C65.1476 119.999 66.3866 119.999 67.6256 119.999C68.8646 119.999 70.1036 119.999 71.3426 119.999C72.5816 119.999 73.8206 119.999 75.0596 119.999C76.2986 119.999 77.5376 119.999 78.7766 119.999C80.0156 119.999 81.2546 119.999 82.4936 119.999C83.7326 119.999 84.9716 119.999 86.2106 119.999C87.4496 119.999 88.6886 119.999 89.9276 119.999C91.1666 119.999 92.4056 119.999 93.6446 119.999C94.8836 119.999 96.1226 119.999 97.3616 119.999C98.6006 119.999 99.8396 119.999 101.079 119.999C102.318 119.999 103.557 119.999 104.796 119.999C106.035 119.999 107.274 119.999 108.513 119.999C109.752 119.999 110.991 119.999 112.23 119.999C113.469 119.999 114.708 119.999 115.947 119.999C117.186 119.999 118.425 119.999 119.664 119.999C120.903 119.999 122.142 119.999 123.381 119.999C124.62 119.999 125.859 119.999 127.098 119.999C128.337 119.999 129.576 119.999 130.815 119.999C132.054 119.999 133.293 119.999 134.532 119.999C135.771 119.999 137.01 119.999 138.249 119.999C139.488 119.999 140.727 119.999 141.966 119.999C143.205 119.999 144.444 119.999 145.683 119.999C146.922 119.999 148.161 119.999 149.4 119.999C150.639 119.999 151.878 119.999 153.117 119.999" stroke="#5E8E3E" stroke-width="2"/>
  <path fill-rule="evenodd" clip-rule="evenodd" d="M76.5 31.5C76.5 31.5 76.5 31.5 76.5 31.5C76.5 31.5 76.5 31.5 76.5 31.5C76.5 31.5 76.5 31.5 76.5 31.5ZM76.5 31.5C76.5 31.5 76.5 31.5 76.5 31.5C76.5 31.5 76.5 31.5 76.5 31.5C76.5 31.5 76.5 31.5 76.5 31.5Z" fill="#95BF47"/>
  <path d="M76.5 31.5L76.5 31.5L76.5 31.5L76.5 31.5Z" stroke="#95BF47" stroke-width="2"/>
  <path fill-rule="evenodd" clip-rule="evenodd" d="M76.5 109.5C76.5 109.5 76.5 109.5 76.5 109.5C76.5 109.5 76.5 109.5 76.5 109.5C76.5 109.5 76.5 109.5 76.5 109.5ZM76.5 109.5C76.5 109.5 76.5 109.5 76.5 109.5C76.5 109.5 76.5 109.5 76.5 109.5C76.5 109.5 76.5 109.5 76.5 109.5Z" fill="#5E8E3E"/>
  <path d="M76.5 109.5L76.5 109.5L76.5 109.5L76.5 109.5Z" stroke="#5E8E3E" stroke-width="2"/>
  <path d="M200 70.5C200 88.4493 185.449 103 167.5 103C149.551 103 135 88.4493 135 70.5C135 52.5507 149.551 38 167.5 38C185.449 38 200 52.5507 200 70.5Z" fill="#95BF47"/>
  <path d="M265 70.5C265 88.4493 250.449 103 232.5 103C214.551 103 200 88.4493 200 70.5C200 52.5507 214.551 38 232.5 38C250.449 38 265 52.5507 265 70.5Z" fill="#5E8E3E"/>
  <path d="M330 70.5C330 88.4493 315.449 103 297.5 103C279.551 103 265 88.4493 265 70.5C265 52.5507 279.551 38 297.5 38C315.449 38 330 52.5507 330 70.5Z" fill="#95BF47"/>
  <path d="M395 70.5C395 88.4493 380.449 103 362.5 103C344.551 103 330 88.4493 330 70.5C330 52.5507 344.551 38 362.5 38C380.449 38 395 52.5507 395 70.5Z" fill="#5E8E3E"/>
  <path d="M460 70.5C460 88.4493 445.449 103 427.5 103C409.551 103 395 88.4493 395 70.5C395 52.5507 409.551 38 427.5 38C445.449 38 460 52.5507 460 70.5Z" fill="#95BF47"/>
  <path d="M500 70.5C500 88.4493 485.449 103 467.5 103C449.551 103 435 88.4493 435 70.5C435 52.5507 449.551 38 467.5 38C485.449 38 500 52.5507 500 70.5Z" fill="#5E8E3E"/>
</svg> 